:SAMPLES-PER-SECOND 30
:FRAME-RANGE 1-2045
:FULLY-SPECIFIED
:DEGREES
320
root  23.7888 33.6911 88.8232 -161.135 -24.5562 172.617
RightUpLeg  -29.7547 1.80092 -41.0859
RightLeg  24.3143 9.81142 4.61077
RightFoot  -22.9501 2.45122 25.2762
RightToes  -5.28216e-011 1.2921e-014 -6.02303e-014
Spine  27.5048 -1.3324 6.81657
Spine1  -5.16568 1.43523 -3.96995
HEad  -10.9077 12.0143 -23.933
LeftShoulder1  2.59268 -10.368 -12.0963
LeftArm  -21.3223 -27.3384 -38.1105
LeftForeArm  -8.03417 6.38792 -4.1461
LeftHand  0.281269 1.39814 -8.52227
RightShoulder  2.64009 6.97208 19.3458
RightArm  -17.8039 42.851 83.3836
RightForeArm  33.6085 -4.90881 -4.72066
RightHand  -0.0717499 -4.3043 -5.63457
LeftUpLeg  -51.6019 14.1247 5.65578
LeftLeg  40.7249 -3.40471 -2.73188
LeftFoot  -19.3756 -1.02632 -16.168
LeftToes  9.43379e-011 5.24309e-011 -4.66411e-011
321
root  23.4608 33.4615 88.6589 -161.447 -30.992 172.379
RightUpLeg  -25.6279 2.75547 -40.7978
RightLeg  26.6197 8.4463 4.36977
RightFoot  -23.9178 2.62799 24.9669
RightToes  -5.28216e-011 1.2921e-014 -6.02303e-014
Spine  27.5085 -0.887773 7.3093
Spine1  -4.40504 1.98601 -5.2707
HEad  -9.5494 8.18998 -21.1947
LeftShoulder1  2.36471 -10.0071 -10.7677
LeftArm  -21.6416 -27.5183 -36.3641
LeftForeArm  -7.99823 6.37324 -4.05559
LeftHand  0.293034 1.24873 -8.51736
RightShoulder  2.76379 7.29622 19.7607
RightArm  -17.4791 42.1977 84.6894
RightForeArm  32.5119 -4.93805 -4.64662
RightHand  -0.124318 -3.1452 -5.72927
LeftUpLeg  -53.4331 16.1354 3.02074
LeftLeg  41.9391 -2.15734 -1.66239
LeftFoot  -17.8571 -0.805784 -15.9388
LeftToes  9.43379e-011 5.24309e-011 -4.66411e-011
322
root  23.0784 33.229 88.3667 -161.781 -36.9917 171.969
RightUpLeg  -21.7996 3.65697 -39.7389
RightLeg  30.1226 3.69874 2.09366
RightFoot  -25.6136 2.8989 24.2217
RightToes  -5.28216e-011 1.2921e-014 -6.02303e-014
Spine  27.3464 -0.497974 7.68339
Spine1  -3.28024 2.51913 -6.96487
HEad  -8.34571 3.77111 -17.4358
LeftShoulder1  2.045 -9.17324 -9.2373
LeftArm  -22.3807 -27.2092 -34.8432
LeftForeArm  -8.1876 4.16032 -4.06285
LeftHand  0.20197 1.92532 -7.25777
RightShoulder  2.92834 7.77812 20.1432
RightArm  -16.4691 42.1139 86.4094
RightForeArm  31.5427 -4.98505 -4.4569
RightHand  -0.159338 -2.69779 -6.39427
LeftUpLeg  -54.3788 15.3531 1.93659
LeftLeg  43.338 -0.690449 -0.274736
LeftFoot  -16.4631 -0.658362 -16.8097
LeftToes  9.43379e-011 5.24309e-011 -4.66411e-011
323
root  22.6014 33.0068 87.9953 -161.815 -42.7979 171.809
RightUpLeg  -18.4626 3.19971 -37.8237
RightLeg  33.9842 -0.215114 -0.396129
RightFoot  -26.9782 2.85584 21.8994
RightToes  -5.28216e-011 1.2921e-014 -6.02303e-014
Spine  26.5279 0.108226 8.25665
Spine1  -2.18195 3.13303 -7.63006
HEad  -6.91098 -0.678529 -14.0151
LeftShoulder1  1.82689 -8.35639 -8.43086
LeftArm  -22.9809 -26.449 -33.1604
LeftForeArm  -7.60187 0.494471 -4.33463
LeftHand  0.351927 0.723182 -8.941
RightShoulder  3.11421 8.5787 19.9161
RightArm  -15.2162 42.004 87.6865
RightForeArm  29.762 -5.10847 -3.88653
RightHand  -0.190648 -2.18326 -6.59232
LeftUpLeg  -55.5536 14.131 1.09002
LeftLeg  44.7607 -1.63597 -1.30759
LeftFoot  -14.5304 -0.39707 -17.2607
LeftToes  9.43379e-011 5.24309e-011 -4.66411e-011
324
root  22.0905 32.7531 87.5281 -161.808 -47.8221 171.673
RightUpLeg  -15.5225 1.71327 -35.8194
RightLeg  37.8454 -2.95131 -2.71537
RightFoot  -28.209 2.86037 20.3984
RightToes  -5.28216e-011 1.2921e-014 -6.02303e-014
Spine  25.6044 1.18478 8.31992
Spine1  -1.22769 3.99747 -7.60107
HEad  -5.83047 -5.42924 -10.7555
LeftShoulder1  1.75098 -8.01294 -8.21265
LeftArm  -23.0936 -24.9952 -30.898
LeftForeArm  -8.95281 -3.41871 -4.84312
LeftHand  0.332242 0.916941 -8.84964
RightShoulder  3.15974 8.71587 20.0028
RightArm  -13.5139 41.9119 89.0733
RightForeArm  29.7115 -5.28041 -2.91085
RightHand  -0.189815 -2.24646 -6.68476
LeftUpLeg  -56.4222 13.3404 0.445273
LeftLeg  46.02 -3.77468 -3.74895
LeftFoot  -11.1864 0.0915824 -18.3228
LeftToes  9.43379e-011 5.24309e-011 -4.66411e-011
325
root  21.475 32.5931 87 -162.047 -52.6695 171.84
RightUpLeg  -12.2113 -1.07751 -33.5919
RightLeg  40.7007 -5.33445 -5.17041
RightFoot  -27.7844 2.89474 21.1331
RightToes  -5.28216e-011 1.2921e-014 -6.02303e-014
Spine  24.5375 2.4496 8.22054
Spine1  -0.743588 4.76573 -6.14323
HEad  -4.38946 -9.82039 -8.35544
LeftShoulder1  1.72896 -7.66948 -8.5305
LeftArm  -23.0602 -23.4533 -28.7784
LeftForeArm  -10.5536 -6.09492 -5.20802
LeftHand  0.26033 1.37559 -7.85768
RightShoulder  3.15765 8.8808 19.6017
RightArm  -12.2356 41.7372 90.6348
RightForeArm  29.5348 -5.39885 -2.24567
RightHand  -0.203109 -2.35025 -7.41541
LeftUpLeg  -56.9801 12.3347 -0.00242952
LeftLeg  47.0594 -5.59983 -5.9823
LeftFoot  -6.39592 0.725379 -15.829
LeftToes  9.43379e-011 5.24309e-011 -4.66411e-011
326
root  20.8503 32.5372 86.4516 -161.769 -57.3043 171.395
RightUpLeg  -8.79599 -2.71501 -31.7353
RightLeg  42.7814 -7.56042 -7.71238
RightFoot  -26.5642 3.00323 23.5305
RightToes  -5.28216e-011 1.2921e-014 -6.02303e-014
Spine  23.3326 3.27642 8.56703
Spine1  -0.200358 5.49146 -6.21605
HEad  -3.84505 -14.5772 -4.84448
LeftShoulder1  1.6394 -7.17985 -8.39824
LeftArm  -23.873 -21.6813 -27.1448
LeftForeArm  -11.5837 -8.9449 -5.20575
LeftHand  0.427726 0.0946216 -9.45306
RightShoulder  3.18508 9.00327 19.5646
RightArm  -10.3507 42.2899 92.1912
RightForeArm  29.537 -3.60344 -1.18035
RightHand  -0.200027 -2.65838 -8.07546
LeftUpLeg  -57.4593 11.1462 -1.10057
LeftLeg  48.7629 -7.39642 -8.51732
LeftFoot  -3.59837 0.556915 -7.90308
LeftToes  9.43379e-011 5.24309e-011 -4.66411e-011
327
root  20.1985 32.606 85.9143 -160.703 -61.7562 170.101
RightUpLeg  -5.53778 -4.39878 -30.3652
RightLeg  44.4416 -8.99888 -9.61988
RightFoot  -24.6001 2.77015 24.9187
RightToes  -5.28216e-011 1.2921e-014 -6.02303e-014
Spine  22.0374 4.12453 8.78898
Spine1  0.368124 6.22619 -6.1937
HEad  -4.01222 -19.5794 -1.08077
LeftShoulder1  1.54279 -6.63505 -8.26956
LeftArm  -24.0254 -19.5971 -26.3128
LeftForeArm  -14.1823 -13.1922 -5.21174
LeftHand  0.424103 0.00877915 -9.21154
RightShoulder  3.19153 9.18179 19.2216
RightArm  -8.04458 43.4452 93.1874
RightForeArm  29.9008 -1.00945 0.172223
RightHand  -0.208329 -2.60985 -8.29451
LeftUpLeg  -57.1161 8.8075 -1.46185
LeftLeg  49.9429 -8.34549 -10.0596
LeftFoot  -3.2708 0.346544 -4.63331
LeftToes  9.43379e-011 5.24309e-011 -4.66411e-011
